<svg width="220" height="130" viewBox="0 0 220 130" fill="none" xmlns="http://www.w3.org/2000/svg">
<rect width="220" height="130" fill="white"/>
<path d="M81.9355 66.3258C81.9413 63.8125 81.17 61.359 79.727 59.3013C78.2841 57.2435 76.2402 55.6823 73.8754 54.8314C74.0906 53.7345 74.1991 52.6194 74.1994 51.5016C74.2015 47.8016 73.0303 44.1963 70.8541 41.2039C68.678 38.2116 65.609 35.9864 62.0885 34.8482C58.5679 33.71 54.7772 33.7175 51.2611 34.8696C47.7451 36.0217 44.685 38.2591 42.5207 41.26C40.924 40.0227 38.9675 39.3394 36.9477 39.3137C34.9278 39.288 32.9546 39.9213 31.3269 41.1177C29.6993 42.314 28.5058 44.0082 27.9274 45.9436C27.349 47.8791 27.417 49.9503 28.1213 51.8436C25.7509 52.7075 23.702 54.2767 22.2501 56.34C20.7982 58.4033 20.0129 60.8618 20 63.3847C19.9935 65.9066 20.7688 68.3685 22.2194 70.4315C23.6699 72.4945 25.7243 74.0571 28.0997 74.9042C27.8894 76.0006 27.7822 77.1142 27.7793 78.2305C27.7758 81.9261 28.946 85.5275 31.1213 88.5152C33.2965 91.5028 36.3644 93.7225 39.8826 94.8541C43.4008 95.9857 47.1874 95.9708 50.6965 94.8115C54.2057 93.6522 57.256 91.4084 59.4076 88.4037C60.9997 89.6441 62.9528 90.3315 64.9708 90.3616C66.9888 90.3917 68.9616 89.7629 70.5899 88.5705C72.2183 87.3782 73.4134 85.6873 73.9939 83.7544C74.5745 81.8215 74.5089 79.7519 73.807 77.8597C76.1787 76.9972 78.229 75.4285 79.6817 73.3649C81.1344 71.3014 81.9197 68.8421 81.9319 66.3186" fill="white"/>
<path d="M44.349 60.5731L57.9025 66.7612L71.5819 54.7809C71.7789 53.7924 71.8766 52.7866 71.8735 51.7787C71.8728 48.5154 70.8277 45.338 68.8911 42.7114C66.9546 40.0849 64.2283 38.147 61.1111 37.1815C57.994 36.2159 54.6496 36.2733 51.5675 37.3453C48.4853 38.4173 45.8271 40.4475 43.9818 43.139L41.7031 54.9249L44.349 60.5731Z" fill="#FEC514"/>
<path d="M30.3213 74.9261C30.1214 75.9301 30.0213 76.9514 30.0225 77.9752C30.0225 81.252 31.073 84.4426 33.0196 87.0785C34.9663 89.7145 37.7066 91.6571 40.8384 92.6212C43.9703 93.5852 47.3287 93.52 50.4207 92.4351C53.5128 91.3502 56.1756 89.3027 58.0185 86.5932L60.2756 74.8325L57.2625 69.0727L43.6587 62.8738L30.3213 74.9261Z" fill="#00BFB3"/>
<path d="M30.2388 51.4725L39.5264 53.6649L41.5603 43.1029C40.297 42.145 38.7575 41.6221 37.1722 41.6124C35.5869 41.6028 34.0411 42.1069 32.7662 43.0494C31.4914 43.9918 30.5562 45.3218 30.1005 46.8403C29.6449 48.3587 29.6934 49.9839 30.2388 51.4725" fill="#F04E98"/>
<path d="M29.4322 53.6831C27.3944 54.3707 25.6216 55.6764 24.3603 57.4183C23.099 59.1603 22.4118 61.2521 22.3945 63.4027C22.3931 65.4812 23.0243 67.5109 24.2042 69.222C25.3842 70.9331 27.057 72.2445 29.0003 72.9819L42.0317 61.2032L39.6378 56.0914L29.4322 53.6831Z" fill="#1BA9F5"/>
<path d="M60.4023 86.5931C61.6635 87.5462 63.1992 88.0657 64.78 88.0741C66.3607 88.0825 67.9018 87.5793 69.1731 86.6397C70.4443 85.7002 71.3776 84.3746 71.8334 82.8609C72.2893 81.3473 72.2433 79.7268 71.7023 78.2415L62.4219 76.0815L60.4023 86.5931Z" fill="#93C90E"/>
<path d="M62.2869 73.6371L72.5032 76.0238C74.5422 75.3381 76.3162 74.0329 77.5779 72.2905C78.8395 70.5481 79.5258 68.4554 79.5409 66.3043C79.5391 64.2301 78.9066 62.2056 77.7275 60.4993C76.5484 58.7929 74.8783 57.4854 72.9388 56.7502L59.5762 68.4498L62.2869 73.6371Z" fill="#0077CC"/>
<path d="M106.599 77.3449L107.838 77.219L107.924 79.7388C105.168 80.155 102.388 80.3835 99.6012 80.4228C96.5293 80.4228 94.3526 79.5337 93.0711 77.7553C91.7895 75.977 91.15 73.2099 91.1524 69.4541C91.1524 61.9736 94.1258 58.2321 100.073 58.2297C102.953 58.2297 105.101 59.0337 106.517 60.6416C107.932 62.2496 108.643 64.7695 108.648 68.2013L108.478 70.6348H94.3958C94.3958 72.9963 94.823 74.7459 95.6774 75.8834C96.5317 77.021 98.0173 77.5897 100.134 77.5897C102.255 77.5969 104.411 77.5153 106.599 77.3449ZM105.447 68.0861C105.447 65.4678 105.029 63.6187 104.191 62.5388C103.353 61.4588 101.988 60.9176 100.094 60.9152C98.2009 60.9152 96.7777 61.484 95.825 62.6216C94.8722 63.7591 94.3814 65.5806 94.3526 68.0861H105.447Z" fill="#1C1E23"/>
<path d="M113.11 80.2536V52.1748H116.311V80.2536H113.11Z" fill="#1C1E23"/>
<path d="M136.466 65.0982V75.8617C136.466 76.9417 139.123 76.8841 139.123 76.8841L138.961 79.7136C136.711 79.7136 134.85 79.9008 133.734 78.8172C131.317 79.8905 128.699 80.4366 126.055 80.4192C124.094 80.4192 122.6 79.8636 121.573 78.7524C120.546 77.6413 120.034 76.0441 120.036 73.961C120.036 71.8827 120.563 70.3528 121.616 69.3712C122.67 68.3897 124.32 67.7897 126.566 67.5713L133.266 66.9341V65.0982C133.266 63.6582 132.954 62.6191 132.33 61.9807C131.988 61.6598 131.584 61.4114 131.144 61.2505C130.703 61.0897 130.235 61.0197 129.767 61.0448H121.357V58.2261H129.554C131.973 58.2261 133.73 58.7817 134.824 59.8928C135.919 61.004 136.466 62.7391 136.466 65.0982ZM123.316 73.8026C123.316 76.4209 124.396 77.7301 126.555 77.7301C128.504 77.7278 130.438 77.3955 132.276 76.7473L133.255 76.4053V69.364L126.951 69.9616C125.67 70.0768 124.745 70.4464 124.176 71.0703C123.607 71.6943 123.32 72.6051 123.316 73.8026Z" fill="#1C1E23"/>
<path d="M148.96 61.0881C145.857 61.0881 144.306 62.1681 144.306 64.328C144.306 65.3264 144.666 66.0307 145.386 66.4411C146.106 66.8515 147.727 67.2787 150.249 67.7227C152.783 68.1666 154.576 68.7858 155.627 69.5802C156.678 70.3746 157.205 71.8673 157.208 74.0584C157.208 76.2519 156.503 77.8598 155.094 78.8822C153.686 79.9046 151.63 80.4169 148.928 80.4193C147.164 80.4193 141.275 79.7642 141.275 79.7642L141.447 76.9923C144.831 77.3163 147.276 77.5575 148.928 77.5575C150.58 77.5575 151.837 77.2947 152.704 76.7691C153.572 76.2435 154.004 75.3615 154.004 74.1232C154.004 72.8849 153.644 72.0461 152.895 71.6033C152.146 71.1605 150.533 70.7429 148.032 70.3434C145.53 69.9438 143.748 69.3606 142.697 68.5938C141.645 67.8271 141.116 66.4015 141.116 64.3244C141.116 62.2473 141.836 60.7246 143.316 59.7166C144.795 58.7086 146.61 58.2227 148.798 58.2227C150.533 58.2227 156.556 58.6654 156.556 58.6654V61.4553C153.377 61.3149 150.778 61.0881 148.96 61.0881Z" fill="#1C1E23"/>
<path d="M172.633 61.4265H165.848V71.6285C165.848 74.074 166.025 75.6807 166.38 76.4487C166.74 77.2191 167.583 77.6007 168.918 77.6007L172.716 77.3451L172.932 79.991C171.494 80.2568 170.038 80.4144 168.576 80.4625C166.359 80.4625 164.823 79.9214 163.968 78.839C163.114 77.7567 162.688 75.6939 162.691 72.6509V61.4265H159.674V58.6546H162.705V52.1245H165.862V58.6546H172.633V61.4265Z" fill="#1C1E23"/>
<path d="M177.084 55.9294V52.2144H180.284V55.9294H177.084ZM177.084 80.2536V58.6545H180.284V80.2536H177.084Z" fill="#1C1E23"/>
<path d="M194.146 58.2261C195.745 58.2943 197.337 58.4662 198.913 58.7409L199.935 58.8668L199.809 61.4695C198.137 61.2576 196.454 61.1303 194.769 61.088C192.35 61.088 190.707 61.6639 189.841 62.8159C188.975 63.9678 188.54 66.1013 188.538 69.2164C188.538 72.3363 188.943 74.5058 189.755 75.725C190.566 76.9441 192.258 77.5561 194.83 77.5609L199.87 77.1793L200 79.8252C198.038 80.1575 196.056 80.3572 194.067 80.4228C190.741 80.4228 188.444 79.5684 187.177 77.8597C185.91 76.1509 185.276 73.2711 185.276 69.22C185.276 65.1666 185.959 62.3215 187.325 60.6848C188.69 59.048 190.964 58.2285 194.146 58.2261Z" fill="#1C1E23"/>
</svg>
