<svg width="327" height="318" viewBox="0 0 327 318" fill="none" xmlns="http://www.w3.org/2000/svg">
<g clip-path="url(#clip0)">
<path d="M46.2252 182.148L63.4564 191.826C72.5963 196.96 83.4582 198.351 93.6525 195.694C103.847 193.036 112.539 186.548 117.816 177.657L157.609 110.604C162.886 101.713 164.316 91.1458 161.585 81.2284C158.853 71.311 152.184 62.8554 143.044 57.7218L125.813 48.0436" stroke="#0C0D10" stroke-width="4" stroke-linecap="round" stroke-linejoin="round"/>
<path d="M172.175 163.487C161.186 182.003 167.707 205.679 186.74 216.369C205.773 227.059 230.111 220.715 241.099 202.199C252.088 183.683 245.567 160.007 226.534 149.317C207.501 138.627 183.163 144.971 172.175 163.487Z" stroke="#0C0D10" stroke-width="4" stroke-linecap="round" stroke-linejoin="round"/>
</g>
<defs>
<clipPath id="clip0">
<rect width="233.914" height="237.157" fill="white" transform="matrix(-0.510362 0.85996 -0.871886 -0.489709 326.637 116.138)"/>
</clipPath>
</defs>
</svg>
